<?xml version="1.0" standalone="no"?>
<!DOCTYPE svg PUBLIC "-//W3C//DTD SVG 20010904//EN"
 "http://www.w3.org/TR/2001/REC-SVG-20010904/DTD/svg10.dtd">
<svg version="1.0" xmlns="http://www.w3.org/2000/svg"
 width="500.000000pt" height="500.000000pt" viewBox="0 0 500.000000 500.000000"
 preserveAspectRatio="xMidYMid meet">

<g transform="translate(0.000000,500.000000) scale(0.100000,-0.100000)"
fill="#000000" stroke="none">
<path d="M1771 3564 c-174 -47 -315 -203 -342 -379 -6 -35 -8 -341 -7 -725 4
-749 0 -714 81 -832 50 -73 141 -146 224 -180 l58 -23 684 -3 c469 -2 701 1
738 8 177 37 329 194 362 376 15 80 15 1309 0 1389 -32 174 -172 325 -344 370
-85 22 -1371 21 -1454 -1z m553 -556 c14 -20 16 -85 16 -512 0 -441 -2 -491
-17 -508 -14 -15 -32 -18 -134 -18 -94 0 -121 3 -133 16 -14 14 -16 74 -16
514 0 440 2 500 16 514 12 13 40 16 134 16 111 0 120 -1 134 -22z m620 6 c14
-14 16 -74 16 -514 0 -440 -2 -500 -16 -514 -23 -24 -240 -23 -266 1 -17 15
-18 44 -18 514 0 439 2 499 16 513 12 13 40 16 134 16 94 0 122 -3 134 -16z"/>
</g>
</svg>
